<svg xmlns="http://www.w3.org/2000/svg" viewBox="0 0 369.96 369.96" style="enable-background:new 0 0 369.96 369.96" xml:space="preserve"><circle style="fill:#f9dac5" cx="51.207" cy="47.326" r="35.18"/><path style="opacity:.25;enable-background:new" d="M16.027 47.324c0 19.431 15.745 35.183 35.176 35.183 3.015 0 5.95-.379 8.739-1.092-15.199-3.889-26.437-17.675-26.437-34.091 0-16.415 11.237-30.195 26.437-34.084a35.237 35.237 0 0 0-8.739-1.092c-19.431 0-35.176 15.745-35.176 35.176z"/><path style="fill:#333" d="M51.206 87.506c-22.155 0-40.179-18.025-40.179-40.18s18.024-40.18 40.179-40.18 40.18 18.025 40.18 40.18-18.024 40.18-40.18 40.18zm0-70.36c-16.641 0-30.179 13.539-30.179 30.18s13.539 30.18 30.179 30.18c16.641 0 30.18-13.539 30.18-30.18s-13.539-30.18-30.18-30.18z"/><path style="fill:#f9dac5" d="M355.621 175.64c0 4.9-.21 9.76-.62 14.56H14.961c-.41-4.8-.62-9.66-.62-14.56 0-12.62 1.37-24.93 3.98-36.77h333.32c2.61 11.84 3.98 24.15 3.98 36.77z"/><path style="fill:#f9a064" d="M14.961 190.2h340.04c-.55 6.56-1.47 13.01-2.75 19.33H17.711c-1.28-6.32-2.2-12.77-2.75-19.33z"/><path style="fill:#f9911e" d="M17.711 209.53h334.54c-3.9 19.39-11.1 37.6-20.98 54H38.691a169.292 169.292 0 0 1-20.98-54z"/><path style="fill:#f9700b" d="M351.641 138.87H18.321a169.06 169.06 0 0 1 14.91-41.34h303.5a169.06 169.06 0 0 1 14.91 41.34z"/><path style="fill:#f9dac5" d="M336.731 97.53h-303.5a171.23 171.23 0 0 1 9.82-16.66h283.86a171.23 171.23 0 0 1 9.82 16.66z"/><path style="fill:#f9700b" d="M38.691 263.53h292.58a170.03 170.03 0 0 1-21.05 28H59.741c-7.94-8.56-15-17.94-21.05-28z"/><path style="fill:#e0aa86" d="M326.911 80.87H43.051a171.588 171.588 0 0 1 24.12-28.67h235.62c9.04 8.63 17.14 18.24 24.12 28.67zM59.741 291.53h250.48a170.707 170.707 0 0 1-33.48 28H93.221a170.707 170.707 0 0 1-33.48-28z"/><path style="fill:#f9a064" d="M302.791 52.2H67.171C97.801 22.96 139.291 5 184.981 5s87.18 17.96 117.81 47.2z"/><path style="fill:#f9dac5" d="M93.221 319.53h183.52c-26.49 16.93-57.98 26.75-91.76 26.75s-65.27-9.82-91.76-26.75z"/><path style="fill:#333" d="M302.791 57.2H67.171a5 5 0 0 1 0-10h235.62a5 5 0 0 1 0 10zM244.081 85.87H43.051a5 5 0 0 1 0-10h201.03a5 5 0 0 1 0 10zM326.911 85.87h-62.83a5 5 0 0 1 0-10h62.83a5 5 0 0 1 0 10zM130.581 102.53h-97.35a5 5 0 0 1 0-10h97.35a5 5 0 0 1 0 10zM336.731 102.53h-190.15a5 5 0 0 1 0-10h190.15a5 5 0 0 1 0 10zM264.081 214.53H17.711a5 5 0 0 1 0-10h246.37a5 5 0 0 1 0 10zM352.251 214.53h-69.67a5 5 0 0 1 0-10h69.67a5 5 0 0 1 0 10zM73.581 268.53h-34.89a5 5 0 0 1 0-10h34.89a5 5 0 0 1 0 10zM331.271 268.53h-129.69a5 5 0 0 1 0-10h129.69a5 5 0 0 1 0 10zM310.221 296.53H59.741a5 5 0 0 1 0-10h250.48a5 5 0 0 1 0 10zM221.581 324.53H93.221a5 5 0 0 1 0-10h128.36a5 5 0 0 1 0 10zM276.741 324.53h-32.66a5 5 0 0 1 0-10h32.66a5 5 0 0 1 0 10zM224.581 143.87H18.321a5 5 0 0 1 0-10h206.26a5 5 0 0 1 0 10zM351.641 143.87h-108.56a5 5 0 0 1 0-10h108.56a5 5 0 0 1 0 10zM112.581 195.2h-97.62a5 5 0 0 1 0-10h97.62a5 5 0 0 1 0 10zM130.784 195.2c-.32 0-.65-.03-.97-.1-.32-.06-.64-.16-.94-.28-.3-.13-.59-.28-.86-.46-.28-.18-.53-.39-.76-.62-.93-.93-1.47-2.22-1.47-3.54s.54-2.6 1.47-3.54c.23-.23.48-.43.76-.62.27-.18.56-.33.86-.46a5.036 5.036 0 0 1 5.45 1.08c.23.24.44.49.62.76.18.28.33.57.46.87.12.3.22.61.29.93a5.414 5.414 0 0 1 0 1.96c-.07.32-.17.63-.29.93-.13.3-.28.6-.46.87s-.39.53-.62.76c-.93.93-2.22 1.46-3.54 1.46zM355.001 195.2h-208.42a5 5 0 0 1 0-10h208.42a5 5 0 0 1 0 10z"/><path style="fill:#fff" d="M259.677 52.598a4.98 4.98 0 0 1-2.649-.763 145.892 145.892 0 0 0-18.472-9.799 5 5 0 0 1 4.039-9.149 156.025 156.025 0 0 1 19.741 10.473 5 5 0 0 1-2.659 9.238zM282.775 290.341a5 5 0 0 1-3.417-8.651c29.375-27.483 46.223-66.24 46.223-106.334 0-40.324-16.17-77.856-45.532-105.684a5 5 0 0 1 6.879-7.259c31.375 29.735 48.653 69.845 48.653 112.942 0 42.851-18.002 84.27-49.391 113.636a4.98 4.98 0 0 1-3.415 1.35zM261.744 306.803a5 5 0 0 1-2.727-9.194 146.469 146.469 0 0 0 7.524-5.227 5 5 0 0 1 5.959 8.031 156.5 156.5 0 0 1-8.039 5.583 4.974 4.974 0 0 1-2.717.807z"/><path style="fill:#edc3a6" d="M171.012 233.419c8.336 5.181 13.437 12.135 13.437 19.781 0 16.016-22.386 29-50 29s-50-12.984-50-29 22.386-29 50-29c7.216 0 14.075.887 20.271 2.482"/><path style="fill:#333" d="M134.449 287.2c-30.841 0-55-14.935-55-34s24.159-34 55-34c7.476 0 14.716.888 21.519 2.64a5 5 0 0 1-2.494 9.684c-5.989-1.542-12.39-2.324-19.024-2.324-24.393 0-45 10.991-45 24s20.607 24 45 24 45-10.991 45-24c0-5.578-3.934-11.095-11.076-15.534a5.001 5.001 0 0 1 5.279-8.493c10.187 6.332 15.797 14.865 15.797 24.028-.001 19.064-24.16 33.999-55.001 33.999z"/><path style="fill:#f9700b" d="M134.449 264.2c-19.856 0-30.84-8.14-31.961-11 1.122-2.86 12.105-11 31.961-11s30.84 8.14 31.961 11c-1.121 2.86-12.105 11-31.961 11z"/><path style="fill:#333" d="M134.449 269.2c-20.265 0-34.286-8.232-36.616-14.175l-.716-1.825.716-1.825c2.33-5.943 16.351-14.175 36.616-14.175s34.286 8.232 36.616 14.175l.716 1.825-.716 1.825c-2.329 5.943-16.35 14.175-36.616 14.175zm-24.718-16c3.959 2.486 12.089 6 24.719 6s20.76-3.514 24.719-6c-3.959-2.486-12.089-6-24.719-6s-20.76 3.514-24.719 6zm52.217 2.212zm-54.997 0zm54.997-4.424z"/><path style="opacity:.25;enable-background:new" d="M199.588 336.99c-19.96-7.05-38.22-17.72-53.98-31.21-36.59-31.3-59.78-77.8-59.78-129.72 0-46.04 18.24-87.83 47.88-118.52 16.33-16.91 36.12-30.46 58.23-39.5a169.69 169.69 0 0 1 28.788-8.857 171.187 171.187 0 0 0-35.745-3.763c-22.84 0-44.62 4.49-64.53 12.62-22.11 9.04-41.9 22.59-58.23 39.5-29.64 30.69-47.88 72.48-47.88 118.52 0 51.92 23.19 98.42 59.78 129.72 15.76 13.49 34.02 24.16 53.98 31.21 17.79 6.29 36.94 9.71 56.88 9.71 12.255 0 24.208-1.3 35.734-3.756a169.305 169.305 0 0 1-21.127-5.954z"/><path style="fill:#333" d="M184.981 351.28c-33.604 0-66.265-9.522-94.453-27.537a175.74 175.74 0 0 1-34.459-28.819 175.367 175.367 0 0 1-21.663-28.817c-10.375-17.222-17.642-35.927-21.597-55.591a173.676 173.676 0 0 1-2.831-19.898c-.423-4.948-.638-9.99-.638-14.978 0-12.779 1.378-25.512 4.097-37.846a174.155 174.155 0 0 1 15.35-42.556 176.791 176.791 0 0 1 10.104-17.143 176.892 176.892 0 0 1 24.827-29.511C96.537 17.254 139.602 0 184.981 0c45.378 0 88.443 17.254 121.263 48.583a176.845 176.845 0 0 1 24.822 29.506 176.795 176.795 0 0 1 10.11 17.153 174.183 174.183 0 0 1 15.349 42.558c2.718 12.33 4.096 25.061 4.096 37.84 0 4.985-.214 10.027-.638 14.985a173.85 173.85 0 0 1-2.832 19.897c-3.954 19.658-11.221 38.363-21.598 55.588a175.4 175.4 0 0 1-21.667 28.82 175.766 175.766 0 0 1-34.455 28.814c-28.185 18.014-60.846 27.536-94.45 27.536zm0-341.28c-42.795 0-83.408 16.271-114.357 45.817a166.802 166.802 0 0 0-23.417 27.834 167.1 167.1 0 0 0-9.53 16.168 164.197 164.197 0 0 0-14.471 40.122 166.144 166.144 0 0 0-3.864 35.7c0 4.704.203 9.46.602 14.134a163.737 163.737 0 0 0 2.668 18.763c3.729 18.542 10.58 36.174 20.362 52.413a165.4 165.4 0 0 0 20.433 27.18 165.781 165.781 0 0 0 32.505 27.186c26.578 16.986 57.377 25.964 89.069 25.964s62.491-8.978 89.067-25.963a165.743 165.743 0 0 0 32.5-27.181 165.454 165.454 0 0 0 20.438-27.183c9.784-16.242 16.635-33.874 20.363-52.409a163.973 163.973 0 0 0 2.669-18.762c.4-4.684.602-9.439.602-14.142 0-12.059-1.3-24.068-3.863-35.694l-.001-.006a164.23 164.23 0 0 0-14.469-40.118 166.682 166.682 0 0 0-9.536-16.177 166.809 166.809 0 0 0-23.413-27.829C268.388 26.271 227.776 10 184.981 10z"/><g><circle style="fill:#f9911e" cx="302.081" cy="316.655" r="48.305"/><path style="opacity:.25;enable-background:new" d="M253.776 316.652c0 26.68 21.62 48.31 48.3 48.31 4.14 0 8.17-.52 12-1.5-20.87-5.34-36.3-24.27-36.3-46.81s15.43-41.46 36.3-46.8c-3.83-.98-7.86-1.5-12-1.5-26.68 0-48.3 21.62-48.3 48.3z"/><path style="fill:#fff" d="M326.339 345.912a5 5 0 0 1-3.536-8.535c6.884-6.884 9.886-16.727 8.031-26.329a5 5 0 0 1 9.818-1.898c2.486 12.867-1.543 26.062-10.778 35.297a4.981 4.981 0 0 1-3.535 1.465z"/><path style="fill:#333" d="M302.081 369.96c-29.393 0-53.305-23.913-53.305-53.305 0-29.393 23.913-53.305 53.305-53.305s53.305 23.913 53.305 53.305-23.913 53.305-53.305 53.305zm0-96.61c-23.878 0-43.305 19.427-43.305 43.305s19.427 43.305 43.305 43.305 43.305-19.427 43.305-43.305c0-23.879-19.426-43.305-43.305-43.305z"/><path style="fill:#fff" d="M327.444 299.377c-.33 0-.66-.03-.98-.1-.32-.06-.63-.16-.93-.28-.3-.13-.59-.28-.87-.46-.27-.19-.53-.39-.76-.62-.93-.93-1.46-2.22-1.46-3.54s.53-2.6 1.46-3.53c.23-.24.49-.45.76-.63.28-.18.57-.33.87-.46a5.025 5.025 0 0 1 5.45 1.09c.93.93 1.46 2.21 1.46 3.53s-.53 2.6-1.46 3.54c-.93.93-2.22 1.46-3.54 1.46z"/></g><path style="fill:#333" d="M284.744 301.2c-.32 0-.65-.03-.97-.1-.32-.06-.64-.16-.94-.28-.3-.13-.59-.28-.86-.46-.28-.18-.53-.39-.76-.62-.93-.93-1.47-2.22-1.47-3.54s.54-2.61 1.47-3.54c.23-.23.48-.44.76-.62.27-.18.56-.33.86-.46.3-.12.62-.22.94-.28.64-.13 1.31-.13 1.95 0 .32.06.63.16.94.28a5.02 5.02 0 0 1 1.62 1.08c.93.93 1.46 2.22 1.46 3.54s-.53 2.61-1.46 3.54a5.02 5.02 0 0 1-1.62 1.08c-.31.12-.62.22-.94.28-.32.07-.65.1-.98.1zM302.744 333.87c-.32 0-.65-.04-.97-.1s-.64-.16-.94-.29c-.3-.12-.59-.28-.86-.46-.28-.18-.53-.39-.76-.62a5.04 5.04 0 0 1-1.47-3.53c0-1.32.54-2.61 1.47-3.54.23-.23.48-.44.76-.62a5.113 5.113 0 0 1 1.8-.75c1.62-.32 3.35.21 4.51 1.37.93.93 1.46 2.22 1.46 3.54 0 1.31-.53 2.6-1.46 3.53s-2.22 1.47-3.54 1.47zM283.414 336.53c-.33 0-.65-.03-.98-.09-.32-.07-.63-.16-.93-.29-.3-.12-.59-.28-.86-.46a5.003 5.003 0 0 1-2.23-4.16c0-.32.03-.65.1-.97.06-.32.16-.64.28-.94.13-.3.28-.59.46-.86.19-.28.39-.53.63-.76.23-.23.48-.44.76-.62.27-.18.56-.34.86-.46.3-.13.61-.22.93-.29 1.63-.33 3.35.21 4.52 1.37.23.23.44.48.62.76.18.27.33.56.46.86.12.3.22.62.28.94.07.32.1.65.1.97 0 1.32-.53 2.61-1.46 3.54-.93.93-2.22 1.46-3.54 1.46z"/></svg>